<svg xmlns="http://www.w3.org/2000/svg" viewBox="0 0 300 300" fill="none">
  <defs>
    <linearGradient id="ppl" x1="0" y1="0" x2="0" y2="1"><stop offset="0" stop-color="#a870c8"/><stop offset="1" stop-color="#8a4faf"/></linearGradient>
    <linearGradient id="grn" x1="0" y1="0" x2="0" y2="1"><stop offset="0" stop-color="#46b330"/><stop offset="1" stop-color="#328722"/></linearGradient>
    <linearGradient id="red" x1="0" y1="0" x2="0" y2="1"><stop offset="0" stop-color="#dc4840"/><stop offset="1" stop-color="#c0342c"/></linearGradient>
  </defs>
  <g stroke="#949aa8" stroke-width="15" stroke-linecap="round">
    <line x1="150" y1="150" x2="150" y2="66"/>
    <line x1="150" y1="150" x2="74" y2="210"/>
    <line x1="150" y1="150" x2="226" y2="210"/>
  </g>
  <circle cx="150" cy="150" r="23" fill="#3a3d4c"/>
  <circle cx="150" cy="150" r="11.5" fill="none" stroke="#eef0f4" stroke-width="4.5"/>
  <g>
    <rect x="108" y="24" width="84" height="84" rx="20" fill="url(#ppl)"/>
    <rect x="108.5" y="24.5" width="83" height="83" rx="19.5" fill="none" stroke="#fff" stroke-opacity=".25"/>
    <circle cx="150" cy="66" r="9" fill="#fff"/><circle cx="150" cy="66" r="4" fill="#8a4faf"/>
  </g>
  <g>
    <rect x="32" y="168" width="84" height="84" rx="20" fill="url(#grn)"/>
    <rect x="32.5" y="168.5" width="83" height="83" rx="19.5" fill="none" stroke="#fff" stroke-opacity=".25"/>
    <circle cx="74" cy="210" r="9" fill="#fff"/><circle cx="74" cy="210" r="4" fill="#328722"/>
  </g>
  <g>
    <rect x="184" y="168" width="84" height="84" rx="20" fill="url(#red)"/>
    <rect x="184.5" y="168.5" width="83" height="83" rx="19.5" fill="none" stroke="#fff" stroke-opacity=".25"/>
    <circle cx="226" cy="210" r="9" fill="#fff"/><circle cx="226" cy="210" r="4" fill="#c0342c"/>
  </g>
</svg>
